<svg xmlns="http://www.w3.org/2000/svg" viewBox="0 0 216.16 89.87"><path d="M9.45 3.42H70v60.54H9.45z" fill="#789f3f"/><circle cx="104.66" cy="33.69" r="33.69" fill="#be4f38"/><path d="M124.3 19.72l-5.33 5.07q-5.43-5.74-12.24-5.75a13.42 13.42 0 0 0-13.6 13.6 14.29 14.29 0 0 0 1.74 7.15 12.51 12.51 0 0 0 4.93 4.88 14.3 14.3 0 0 0 7.07 1.77 14.5 14.5 0 0 0 6.06-1.24 21.63 21.63 0 0 0 6-4.51l5.17 5.4a28.43 28.43 0 0 1-8.38 6 22.88 22.88 0 0 1-9 1.67q-9.33 0-15.28-5.92-5.95-5.92-5.95-15.17a20.75 20.75 0 0 1 2.71-10.65 20.11 20.11 0 0 1 7.76-7.48 21.82 21.82 0 0 1 10.87-2.83 23 23 0 0 1 17.45 8z" fill="#fff"/><circle cx="173.02" cy="33.69" r="33.69" fill="#2e3192"/><path d="M191.15 19.22l-5.37 5.3a15.89 15.89 0 0 0-11.88-5.39 13.58 13.58 0 0 0-9.9 3.92 12.87 12.87 0 0 0-4 9.53 13.2 13.2 0 0 0 4.14 9.83 14.06 14.06 0 0 0 10.22 4 12.51 12.51 0 0 0 6.72-1.62 11.63 11.63 0 0 0 4.37-5.2H173.8v-7.17h20.14l.06 1.7a19.56 19.56 0 0 1-2.73 10 19 19 0 0 1-7 7.19 20.08 20.08 0 0 1-10.2 2.43 22.6 22.6 0 0 1-11.12-2.7 19.78 19.78 0 0 1-7.73-7.72 21.49 21.49 0 0 1-2.85-10.81 20.06 20.06 0 0 1 5.26-13.83q6.23-7 16.22-7a24.65 24.65 0 0 1 9.77 1.93 22.44 22.44 0 0 1 7.52 5.62zM22.82 12.68h7.62v32.78h26.2v7.27h-33.8z" fill="#fff"/><path d="M0 76.6h1.34v11.67h5.1v1.26H0zm23.42 6.47a6.82 6.82 0 0 1-7 6.79 6.79 6.79 0 1 1-.11-13.57 6.82 6.82 0 0 1 7.11 6.78zm-12.65.06a5.66 5.66 0 0 0 5.7 5.62c3.133-.02 5.64-2.567 5.62-5.7a5.63 5.63 0 1 0-11.26.07zm16.76-6.53h3.06a10.37 10.37 0 0 1 3.1.32 3.22 3.22 0 0 1 2.19 3.12 3.06 3.06 0 0 1-.39 1.6c-.7 1.35-2 1.87-4.23 1.87l4.8 6H34.4l-4.78-6h-.76v6h-1.34zm1.34 1.26v4.4h2.2a4.32 4.32 0 0 0 2.62-.56 2.14 2.14 0 0 0 .8-1.67c0-1.26-.9-2.18-2.9-2.18zm11.05-1.26h1.33v12.93h-1.33zm23.64 3.2a5.83 5.83 0 0 0-4.75-2.23 5.56 5.56 0 1 0 .07 11.11 6 6 0 0 0 4.68-2.15l1 .78a7.24 7.24 0 0 1-5.82 2.55c-4.45 0-7.17-3-7.17-6.84s3-6.7 7.17-6.7a6.94 6.94 0 0 1 5.82 2.71zm10.52-3.2l6.2 12.93H78.9l-2.1-4.25h-5.73L69 89.54h-1.5l6.3-12.93zm-.16 2.74l-2.3 4.68h4.56zm9.86-2.74h3.08a10.22 10.22 0 0 1 3.08.32 3.34 3.34 0 0 1 .65 6c-1 .57-2.32.64-4.16.64h-1.35v6h-1.3zm1.34 1.26v4.4h2.2a4.29 4.29 0 0 0 2.64-.54 2.2 2.2 0 0 0 .78-1.67 2.17 2.17 0 0 0-.84-1.69 4 4 0 0 0-2.43-.49zm11.1-1.26h3.06a10.37 10.37 0 0 1 3.1.32 3.22 3.22 0 0 1 2.19 3.12 3.06 3.06 0 0 1-.39 1.6c-.7 1.35-2 1.87-4.23 1.87l4.8 6h-1.67l-4.78-6h-.76v6H96.2zm1.34 1.26v4.4h2.2a4.32 4.32 0 0 0 2.62-.56 2.14 2.14 0 0 0 .8-1.67c0-1.26-.9-2.18-2.9-2.18zm24.7 5.2a7 7 0 1 1-7.12-6.78 6.82 6.82 0 0 1 7.12 6.78zm-12.64.06a5.63 5.63 0 1 0 5.6-5.58 5.55 5.55 0 0 0-5.6 5.58zm16.72 6.4V76.6h.28l8.83 9.9v-9.9h1.33v12.93h-.3l-8.8-9.78v9.78zm35.25-6.2c0 4.1-2.7 6.5-6.7 6.5-4.6 0-7.5-3.2-7.5-6.77s2.93-6.78 7.3-6.78a8.51 8.51 0 0 1 6.1 2.5l-1 .94a7.43 7.43 0 0 0-5-2.18 5.74 5.74 0 0 0-5.95 5.49 5.87 5.87 0 0 0 6.15 5.62 4.88 4.88 0 0 0 5.1-4.07h-4.24v-1.26zm9.36-6.73l6.2 12.93h-1.43l-2.1-4.25h-5.75l-2.08 4.25h-1.48l6.3-12.93zm-.17 2.74l-2.3 4.68h4.6zm9.85-2.74h1.33v11.67h5.13v1.26h-6.45zm15.4 0l6.22 12.93h-1.43l-2.1-4.25h-5.74l-2.08 4.25h-1.48l6.3-12.93zm-.16 2.74l-2.3 4.68h4.52zm9.86 10.2V76.6h.28l8.82 9.9v-9.9h1.34v12.93h-.3l-8.78-9.75v9.78z" fill="#231f20"/></svg>