<svg xmlns="http://www.w3.org/2000/svg" viewBox="0 0 197.26 67.38"><defs><style>.cls-1{fill:#789f3f;}.cls-2{fill:#be4f38;}.cls-3{fill:#fff;}.cls-4{fill:#2e3192;}</style></defs><g id="Layer_2" data-name="Layer 2"><g id="Layer_1-2" data-name="Layer 1"><path class="cls-1" d="M0,3.42H60.55V64H0Z"/><circle class="cls-2" cx="95.21" cy="33.69" r="33.69"/><path class="cls-3" d="M114.85,19.72l-5.33,5.07Q104.09,19,97.28,19a13.42,13.42,0,0,0-13.6,13.24v.36a14.39,14.39,0,0,0,1.74,7.15,12.51,12.51,0,0,0,4.93,4.88,14.3,14.3,0,0,0,7.07,1.77,14.52,14.52,0,0,0,6.06-1.24,21.55,21.55,0,0,0,6-4.51l5.17,5.4a28.33,28.33,0,0,1-8.38,6,22.76,22.76,0,0,1-9,1.67q-9.33,0-15.28-5.92T76,32.67A20.78,20.78,0,0,1,78.75,22a20.13,20.13,0,0,1,7.76-7.48,21.77,21.77,0,0,1,10.87-2.83,23,23,0,0,1,17.45,8Z"/><circle class="cls-4" cx="163.57" cy="33.69" r="33.69"/><path class="cls-3" d="M181.7,19.22l-5.37,5.3a15.9,15.9,0,0,0-11.88-5.39,13.56,13.56,0,0,0-9.9,3.92,12.84,12.84,0,0,0-4,9.53,13.23,13.23,0,0,0,4.14,9.83,14,14,0,0,0,10.22,4,12.52,12.52,0,0,0,6.72-1.62,11.66,11.66,0,0,0,4.37-5.2H164.35V32.42h20.14l.06,1.7a19.55,19.55,0,0,1-2.73,10,19,19,0,0,1-7,7.19,20,20,0,0,1-10.2,2.43A22.56,22.56,0,0,1,153.5,51a19.79,19.79,0,0,1-7.73-7.72,21.47,21.47,0,0,1-2.85-10.81,20.08,20.08,0,0,1,5.26-13.83q6.23-7,16.22-7a24.65,24.65,0,0,1,9.77,1.93,22.47,22.47,0,0,1,7.52,5.62ZM13.37,12.68H21V45.46h26.2v7.27H13.39Z"/></g></g></svg>